<svg width="330" height="64" viewBox="0 0 330 64" fill="none" xmlns="http://www.w3.org/2000/svg">
<path d="M205.105 30.071L201.914 18.1444C200.124 11.4599 194.88 6.19261 188.21 4.41176L176.308 1.21376C169.638 -0.579633 162.467 1.35171 157.586 6.24278L148.875 14.984C143.995 19.8751 142.067 27.0612 143.857 33.7456L147.048 45.6723C148.838 52.3568 154.094 57.6241 160.752 59.4049L172.654 62.6029C174.306 63.0418 175.983 63.2551 177.647 63.2551C182.728 63.2551 187.709 61.2485 191.376 57.5739L200.087 48.8452C204.967 43.9416 206.895 36.7555 205.105 30.071ZM187.171 40.2921L182.854 44.6188C181.026 46.4498 178.561 47.4406 176.045 47.4406C175.219 47.4406 174.393 47.3277 173.567 47.1145L167.66 45.5343C164.356 44.6439 161.753 42.0353 160.865 38.7245L159.288 32.805C158.399 29.4942 159.35 25.9325 161.778 23.4995L166.096 19.1727C168.511 16.7523 172.078 15.7992 175.382 16.677L181.289 18.2572C184.593 19.1477 187.196 21.7562 188.085 25.0671L189.662 30.9866C190.538 34.31 189.587 37.8717 187.171 40.2921Z" fill="black"/>
<path d="M136.473 1.33887H128.188C126.474 1.33887 124.984 2.5052 124.571 4.16064L117.613 31.7387C117.413 32.5163 116.737 32.6041 116.537 32.6041C116.349 32.6041 115.648 32.579 115.41 31.8014L106.412 3.9349C105.911 2.37979 104.485 1.33887 102.858 1.33887H93.0211C91.3941 1.33887 89.9674 2.37979 89.4668 3.9349L80.4561 31.814C80.2058 32.579 79.5299 32.6166 79.3297 32.6166C79.1295 32.6166 78.4537 32.5288 78.2534 31.7513L71.1574 4.16064C70.7319 2.5052 69.2426 1.35141 67.5406 1.35141H58.7551C57.5787 1.35141 56.5024 1.89068 55.7891 2.81873C55.0757 3.74678 54.8504 4.93819 55.1508 6.07944L69.7683 59.8812C70.2063 61.499 71.6956 62.6402 73.3726 62.6402H83.4471C85.0741 62.6402 86.5008 61.5993 87.0014 60.0442L96.688 30.0457C96.9258 29.3057 97.589 29.243 97.7768 29.243C97.977 29.243 98.6278 29.3057 98.8656 30.0457L108.477 60.0317C108.978 61.5868 110.404 62.6277 112.031 62.6277H121.856C123.533 62.6277 125.022 61.499 125.46 59.8686L140.077 6.0669C140.39 4.93819 140.152 3.74678 139.439 2.80619C138.726 1.87814 137.649 1.33887 136.473 1.33887Z" fill="black"/>
<path d="M238.157 1.33887H219.36C217.295 1.33887 215.63 3.01939 215.63 5.07614V58.8779C215.63 60.9472 217.307 62.6151 219.36 62.6151H238.069C256.779 62.6151 268.856 50.6007 268.856 32.0146C268.869 13.391 256.817 1.33887 238.157 1.33887ZM231.274 46.5499V17.4167C231.274 16.7771 231.787 16.2629 232.425 16.2629H237.581C247.018 16.2629 252.637 22.1573 252.637 32.0146C252.637 41.8344 247.005 47.6911 237.581 47.6911H232.425C231.787 47.7037 231.274 47.1895 231.274 46.5499Z" fill="black"/>
<path d="M329.767 57.5863L309.78 3.78455C309.242 2.32978 307.828 1.35156 306.276 1.35156H294.55C292.998 1.35156 291.596 2.32978 291.058 3.77201L270.834 57.5737C270.396 58.7275 270.558 60.0067 271.259 61.0226C271.96 62.0384 273.111 62.6404 274.325 62.6404H282.786C284.362 62.6404 285.777 61.6371 286.302 60.1447L289.368 51.4787C289.531 51.0147 289.969 50.7137 290.457 50.7137H309.643C310.131 50.7137 310.569 51.0272 310.731 51.4787L313.785 60.1447C314.311 61.6371 315.725 62.6404 317.302 62.6404H326.263C327.489 62.6404 328.628 62.0384 329.329 61.0351C330.03 60.0193 330.192 58.7275 329.767 57.5863ZM304.737 35.7144C304.524 36.028 304.174 36.2035 303.798 36.2035H296.477C296.101 36.2035 295.751 36.028 295.538 35.7144C295.326 35.4009 295.263 35.0247 295.388 34.661L299.093 24.2142C299.343 23.4993 299.981 23.4492 300.181 23.4492C300.369 23.4492 301.02 23.5119 301.27 24.2267L304.887 34.6735C305.012 35.0247 304.95 35.4009 304.737 35.7144Z" fill="black"/>
<path d="M43.5996 4.09793C43.1616 2.48012 41.6723 1.33887 39.9953 1.33887H31.3099C30.1335 1.33887 29.0572 1.87814 28.3439 2.80619C27.6305 3.73424 27.4053 4.92565 27.7056 6.0669L42.3231 59.8686C42.7611 61.499 44.2504 62.6277 45.9274 62.6277L54.6128 62.5901C55.7767 62.5901 56.853 62.0508 57.5663 61.1102C58.2797 60.1822 58.5049 58.9907 58.1921 57.862L43.5996 4.09793Z" fill="black"/>
<path d="M16.0291 4.09793C15.5911 2.48012 14.1018 1.33887 12.4248 1.33887H3.73941C2.563 1.33887 1.48672 1.87814 0.773364 2.80619C0.060011 3.74678 -0.177773 4.93819 0.135101 6.0669L14.7526 59.8686C15.1906 61.499 16.6799 62.6277 18.3569 62.6277L27.0423 62.5901C28.2062 62.5901 29.2824 62.0508 29.9958 61.1102C30.7092 60.1822 30.9344 58.9907 30.6215 57.862L16.0291 4.09793Z" fill="black"/>
</svg>
